<?xml version="1.0" encoding="utf-8"?>
<!-- Generator: Adobe Illustrator 24.0.0, SVG Export Plug-In . SVG Version: 6.00 Build 0)  -->
<svg version="1.1" id="Layer_2" xmlns="http://www.w3.org/2000/svg" xmlns:xlink="http://www.w3.org/1999/xlink" x="0px" y="0px"
	 viewBox="0 0 512 512" enable-background="new 0 0 512 512" xml:space="preserve">
<g>
	<g>
		<path fill="#6E83B7" d="M329.5,298.515c-29.705,0-59.41-11.307-82.024-33.921l0,0c-45.228-45.229-45.228-118.821,0-164.049
			l56.569-56.569c45.229-45.229,118.82-45.229,164.048,0c45.229,45.229,45.229,118.821,0,164.049l-56.569,56.569
			C388.91,287.208,359.205,298.515,329.5,298.515z M284.245,227.824c24.955,24.954,65.557,24.953,90.51,0l56.569-56.569
			c24.954-24.954,24.953-65.556,0-90.51c-24.954-24.953-65.557-24.953-90.51,0l-56.569,56.569
			C259.292,162.268,259.292,202.87,284.245,227.824l-18.385,18.384L284.245,227.824z"/>
	</g>
	<g>
		<path fill="#6E83B7" d="M126,502.015c-29.705,0-59.41-11.307-82.024-33.921c-45.228-45.229-45.228-118.821,0-164.049
			l56.569-56.569c45.229-45.229,118.82-45.228,164.048,0h0c45.228,45.229,45.228,118.821,0,164.049l-56.569,56.569
			C185.41,490.708,155.705,502.015,126,502.015z M182.568,265.53c-16.389,0-32.778,6.238-45.254,18.715l-56.569,56.569
			c-24.954,24.954-24.954,65.556,0,90.509c24.954,24.954,65.557,24.954,90.51,0l56.569-56.569c24.954-24.954,24.953-65.556,0-90.51
			C215.347,271.769,198.958,265.53,182.568,265.53z"/>
	</g>
	<g>
		
			<rect x="142.863" y="225" transform="matrix(0.7071 -0.7071 0.7071 0.7071 -106.0387 256)" fill="#466089" width="226.274" height="62"/>
	</g>
</g>
</svg>
